<?xml version="1.0" encoding="UTF-8"?>
<!-- Generated by jsxcad -->
<!DOCTYPE svg PUBLIC "-//W3C//DTD SVG 1.1 Tiny//EN" "http://www.w3.org/Graphics/SVG/1.1/DTD/svg11-tiny.dtd">
<svg baseProfile="tiny" height="100.07686729514138mm" width="20mm" viewBox="-10 -50.0384336475707 20 100.07686729514138" version="1.1" stroke="black" stroke-width=".1" fill="none" xmlns="http://www.w3.org/2000/svg">
<path fill="none" stroke="#000000" d="M 10 50.0384336475707 L -5 50.0384336475707 M 10 50.0384336475707 L -5 42.962291515591005 M 10 42.962291515591005 L -5 42.962291515591005 M 5 36.89702683103698 L 4.285714285714285 37.90790427846265 L 2.8571428571428568 38.91878172588832 L 0.7142857142857135 39.42422044960116 L -0.7142857142857144 39.42422044960116 L -2.857142857142857 38.91878172588832 L -4.285714285714286 37.90790427846265 L -5 36.89702683103698 L -5 35.38071065989847 L -4.285714285714286 34.3698332124728 L -2.857142857142857 33.358955765047135 L -0.7142857142857144 32.8535170413343 L 0.7142857142857135 32.8535170413343 L 2.8571428571428568 33.358955765047135 L 4.285714285714285 34.3698332124728 L 5 35.38071065989847 L 5 36.89702683103698 M 6.428571428571427 14.152284263959395 L 7.857142857142856 14.65772298767223 L 9.285714285714285 15.6686004350979 L 10 16.679477882523564 L 10 18.701232777374905 L 9.285714285714285 19.712110224800583 L 7.857142857142856 20.722987672226257 L 6.428571428571427 21.228426395939085 L 4.285714285714285 21.733865119651924 L 0.7142857142857135 21.733865119651924 L -1.4285714285714288 21.228426395939085 L -2.857142857142857 20.722987672226257 L -4.285714285714286 19.712110224800583 L -5 18.701232777374905 L -5 16.679477882523564 L -4.285714285714286 15.6686004350979 L -2.857142857142857 14.65772298767223 L -1.4285714285714288 14.152284263959395 L 0.7142857142857135 14.152284263959395 M 0.7142857142857135 16.679477882523564 L 0.7142857142857135 14.152284263959395 M 0.7142857142857135 11.119651921682383 L 0.7142857142857135 5.05438723712836 L 2.1428571428571423 5.05438723712836 L 3.571428571428571 5.559825960841195 L 4.285714285714285 6.065264684554023 L 5 7.076142131979694 L 5 8.592458303118207 L 4.285714285714285 9.60333575054387 L 2.8571428571428568 10.61421319796954 L 0.7142857142857135 11.119651921682383 L -0.7142857142857144 11.119651921682383 L -2.857142857142857 10.61421319796954 L -4.285714285714286 9.60333575054387 L -5 8.592458303118207 L -5 7.076142131979694 L -4.285714285714286 6.065264684554023 L -2.857142857142857 5.05438723712836 M 5 -0.5054387237128282 L 4.285714285714285 0.5054387237128353 L 2.8571428571428568 1.516316171138513 L 0.7142857142857135 2.021754894851348 L -0.7142857142857144 2.021754894851348 L -2.857142857142857 1.516316171138513 L -4.285714285714286 0.5054387237128353 L -5 -0.5054387237128282 L -5 -2.021754894851334 L -4.285714285714286 -3.0326323422770116 L -2.857142857142857 -4.043509789702675 L -0.7142857142857144 -4.548948513415517 L 0.7142857142857135 -4.548948513415517 L 2.8571428571428568 -4.043509789702675 L 4.285714285714285 -3.0326323422770116 L 5 -2.021754894851334 L 5 -0.5054387237128282 M 5 -8.087019579405364 L -5 -8.087019579405364 M 2.1428571428571423 -8.087019579405364 L 4.285714285714285 -9.60333575054387 L 5 -10.614213197969526 L 5 -12.130529369108046 L 4.285714285714285 -13.141406816533717 L 2.1428571428571423 -13.646845540246545 L -5 -13.646845540246545 M 2.1428571428571423 -13.646845540246545 L 4.285714285714285 -15.163161711385058 L 5 -16.174039158810714 L 5 -17.690355329949227 L 4.285714285714285 -18.701232777374912 L 2.1428571428571423 -19.20667150108774 L -5 -19.20667150108774 M 0.7142857142857135 -22.74474256707758 L 0.7142857142857135 -28.810007251631603 L 2.1428571428571423 -28.810007251631603 L 3.571428571428571 -28.30456852791876 L 4.285714285714285 -27.799129804205933 L 5 -26.788252356780262 L 5 -25.271936185641763 L 4.285714285714285 -24.261058738216093 L 2.8571428571428568 -23.250181290790422 L 0.7142857142857135 -22.74474256707758 L -0.7142857142857144 -22.74474256707758 L -2.857142857142857 -23.250181290790422 L -4.285714285714286 -24.261058738216093 L -5 -25.271936185641763 L -5 -26.788252356780262 L -4.285714285714286 -27.799129804205933 L -2.857142857142857 -28.810007251631603 M 10 -32.8535170413343 L -2.1428571428571432 -32.8535170413343 L -4.285714285714286 -33.35895576504713 L -5 -34.3698332124728 L -5 -35.380710659898455 M 5 -31.337200870195787 L 5 -34.87527193618563 M 5 -38.41334300217548 L -5 -38.41334300217548 M 0.7142857142857135 -38.41334300217548 L 2.8571428571428568 -38.91878172588831 L 4.285714285714285 -39.92965917331399 L 5 -40.94053662073965 L 5 -42.45685279187816 M 5 -43.973168963016676 L -5 -47.00580130529369 M 5 -50.038433647570685 L -5 -47.00580130529369 L -7.857142857142857 -45.994923857868 L -9.285714285714285 -44.984046410442346 L -10 -43.973168963016676 L -10 -43.46773023930383"/>
</svg>